<?xml version="1.0" ?><svg style="enable-background:new 0 0 256 256;" version="1.1" viewBox="0 0 256 256" xml:space="preserve" xmlns="http://www.w3.org/2000/svg" xmlns:xlink="http://www.w3.org/1999/xlink"><style type="text/css">
	.st0{fill:#00A388;}
	.st1{fill:#EA685E;stroke:#00886F;stroke-width:15;stroke-miterlimit:10;}
	.st2{fill:#E8E8E8;}
	.st3{fill:#FFFFFF;stroke:#00886F;stroke-width:15;stroke-miterlimit:10;}
	.st4{fill:#00886F;}
	.st5{fill:#FFFFFF;}
	.st6{fill:#CCCCCC;}
	.st7{fill:none;stroke:#00A388;stroke-width:4;stroke-miterlimit:10;}
	.st8{fill:#EA685E;}
	.st9{fill:#FFAB80;}
	.st10{fill:#2C3E50;}
	.st11{fill:#4B687F;}
	.st12{fill:none;stroke:#3E5063;stroke-width:4;stroke-miterlimit:10;}
	.st13{fill:#FFD766;}
	.st14{fill:#FFE6D3;}
	.st15{fill:#F09A79;}
	.st16{fill:#C91E01;}
	.st17{fill:#EA3B28;}
	.st18{fill:#0F627F;}
	.st19{fill:#005670;}
	.st20{filter:url(#Adobe_OpacityMaskFilter);}
	.st21{mask:url(#SVGID_2_);}
	.st22{fill:#8C623B;}
	.st23{fill:#E6E6E6;stroke:#005670;stroke-width:16;stroke-miterlimit:10;}
	.st24{opacity:0.6;}
	.st25{fill:#E6E6E6;}
	.st26{fill:#FFEC82;}
	.st27{fill:#FFCF3A;}
	.st28{filter:url(#Adobe_OpacityMaskFilter_1_);}
	.st29{mask:url(#SVGID_1_);}
	.st30{fill:#603813;}
	.st31{fill:#F2F2F2;}
	.st32{fill:#666666;}
</style><g id="Layer_2"><circle class="st2" cx="128" cy="128" r="120"/></g><g id="Layer_1"><g><g><path class="st19" d="M194.415649,190.033112H61.584347c-1.97958,0-3.584347-1.604767-3.584347-3.584351V73.551231     c0-1.979576,1.604767-3.584343,3.584347-3.584343h132.831299c1.979584,0,3.584351,1.604767,3.584351,3.584343v112.89753     C198,188.428345,196.395233,190.033112,194.415649,190.033112z"/></g><g><path class="st5" d="M194.415649,186.033112H61.584347c-1.97958,0-3.584347-1.604767-3.584347-3.584351V65.966888h140v116.481873     C198,184.428345,196.395233,186.033112,194.415649,186.033112z"/></g><g><rect class="st0" height="18.543047" width="140" x="58" y="65.966888"/></g><g><g><circle class="st18" cx="161.214127" cy="75.646797" r="3.863135"/></g><g><circle class="st18" cx="173.730682" cy="75.646797" r="3.863135"/></g><g><circle class="st18" cx="186.247238" cy="75.646797" r="3.863135"/></g></g><g><g><path class="st0" d="M78.998596,99.557884h21.947655c1.379936,0,2.498596,1.11866,2.498596,2.498596v21.947647      c0,1.379936-1.11866,2.498596-2.498596,2.498596H78.998596c-1.379936,0-2.498596-1.11866-2.498596-2.498596V102.05648      C76.5,100.676544,77.61866,99.557884,78.998596,99.557884z"/></g><g><path class="st18" d="M115.046089,105.637047h61.878471c1.421082,0,2.575439-1.15033,2.575439-2.577446      c0-1.421585-1.154861-2.575432-2.575439-2.575432h-61.878471c-1.426109,0-2.577438,1.155357-2.577438,2.575432      C112.468155,104.48571,113.619484,105.637047,115.046089,105.637047z"/></g><g><path class="st18" d="M115.046089,115.606735h61.878471c1.421082,0,2.575439-1.150322,2.575439-2.577438      c0-1.421585-1.154861-2.575432-2.575439-2.575432h-61.878471c-1.426109,0-2.577438,1.15535-2.577438,2.575432      C112.468155,114.455406,113.619484,115.606735,115.046089,115.606735z"/></g><g><path class="st18" d="M115.046089,125.576431h34.931114c1.421082,0,2.575439-1.15033,2.575439-2.577446      c0-1.421585-1.154861-2.575432-2.575439-2.575432h-34.931114c-1.426109,0-2.577438,1.155357-2.577438,2.575432      C112.468155,124.424591,113.619484,125.576431,115.046089,125.576431z"/></g></g><g><g><path class="st0" d="M78.998596,141.557877h21.947655c1.379936,0,2.498596,1.118668,2.498596,2.498596v21.947662      c0,1.379929-1.11866,2.498596-2.498596,2.498596H78.998596c-1.379936,0-2.498596-1.118668-2.498596-2.498596v-21.947662      C76.5,142.676544,77.61866,141.557877,78.998596,141.557877z"/></g><g><path class="st18" d="M115.046089,147.637039h61.878471c1.421082,0,2.575439-1.15033,2.575439-2.577438      c0-1.421585-1.154861-2.575424-2.575439-2.575424h-61.878471c-1.426109,0-2.577438,1.15535-2.577438,2.575424      C112.468155,146.485718,113.619484,147.637039,115.046089,147.637039z"/></g><g><path class="st18" d="M115.046089,157.606735h61.878471c1.421082,0,2.575439-1.15033,2.575439-2.577438      c0-1.421585-1.154861-2.575439-2.575439-2.575439h-61.878471c-1.426109,0-2.577438,1.155365-2.577438,2.575439      C112.468155,156.455399,113.619484,157.606735,115.046089,157.606735z"/></g><g><path class="st18" d="M115.046089,167.576431h34.931114c1.421082,0,2.575439-1.15033,2.575439-2.577438      c0-1.421585-1.154861-2.575439-2.575439-2.575439h-34.931114c-1.426109,0-2.577438,1.15535-2.577438,2.575439      C112.468155,166.424591,113.619484,167.576431,115.046089,167.576431z"/></g></g></g></g></svg>